<svg width="48" height="48" viewBox="0 0 48 48" fill="none" xmlns="http://www.w3.org/2000/svg">
  <rect width="48" height="48" rx="10" fill="#0E6FF8"/>
  <path d="M24 12C17.373 12 12 17.373 12 24C12 30.627 17.373 36 24 36C30.627 36 36 30.627 36 24C36 17.373 30.627 12 24 12ZM24 14C29.523 14 34 18.477 34 24C34 29.523 29.523 34 24 34C18.477 34 14 29.523 14 24C14 18.477 18.477 14 24 14Z" fill="white"/>
  <circle cx="24" cy="24" r="6" fill="white"/>
  <path d="M24 20L26 22L24 24L22 22L24 20Z" fill="#0E6FF8"/>
</svg>
