<svg width="48" height="48" viewBox="0 0 48 48" fill="none" xmlns="http://www.w3.org/2000/svg">
  <rect width="48" height="48" rx="10" fill="#4A154B"/>
  <g transform="translate(12, 12)">
    <rect x="0" y="7.2" width="7.2" height="7.2" rx="1.8" fill="#E01E5A"/>
    <rect x="8.4" y="7.2" width="7.2" height="7.2" rx="1.8" fill="#36C5F0"/>
    <rect x="0" y="15.6" width="7.2" height="7.2" rx="1.8" fill="#2EB67D"/>
    <rect x="8.4" y="15.6" width="7.2" height="7.2" rx="1.8" fill="#ECB22E"/>
    <path d="M3.6 0C1.61177 0 0 1.61177 0 3.6C0 5.58823 1.61177 7.2 3.6 7.2C5.58823 7.2 7.2 5.58823 7.2 3.6H3.6V0Z" fill="#E01E5A"/>
    <path d="M12 0C10.0118 0 8.4 1.61177 8.4 3.6C8.4 5.58823 10.0118 7.2 12 7.2C13.9882 7.2 15.6 5.58823 15.6 3.6H12V0Z" fill="#36C5F0"/>
    <path d="M3.6 16.8C1.61177 16.8 0 18.4118 0 20.4C0 22.3882 1.61177 24 3.6 24C5.58823 24 7.2 22.3882 7.2 20.4H3.6V16.8Z" fill="#2EB67D"/>
    <path d="M12 16.8C10.0118 16.8 8.4 18.4118 8.4 20.4C8.4 22.3882 10.0118 24 12 24C13.9882 24 15.6 22.3882 15.6 20.4H12V16.8Z" fill="#ECB22E"/>
  </g>
</svg>
